# xmcd
#
# Track frame offsets: 
#        150
#        21454
#        41303
#        58537
#        76779
#        98299
#        117640
#        136194
#        150984
#        162005
#        185786
#        201623
#
# Disc length: 3016 seconds
#
# Revision: 0
# Processed by: cddbd v1.5.2PL0 Copyright (c) Steve Scherf et al.
# Submitted via: ExactAudioCopy v0.99pb4
#
DISCID=940bc60c
DTITLE=Andy Palacio - Watina
DYEAR=2007
DGENRE=Blues
TTITLE0=I called Out
TTITLE1=Day by Day
TTITLE2=Miami
TTITLE3=Baba
TTITLE4=Together
TTITLE5=Take advice
TTITLE6=Go away
TTITLE7=Worthless
TTITLE8=My Canoe
TTITLE9=My People have moved on
TTITLE10=Goodbye My Dear
TTITLE11=In Times to come
EXTD=
EXTT0=
EXTT1=
EXTT2=
EXTT3=
EXTT4=
EXTT5=
EXTT6=
EXTT7=
EXTT8=
EXTT9=
EXTT10=
EXTT11=
PLAYORDER=
